<?xml version="1.0" encoding="utf-8"?>
<svg version="1.1"
	 id="Livello_1" xmlns:cc="http://creativecommons.org/ns#" xmlns:dc="http://purl.org/dc/elements/1.1/" xmlns:rdf="http://www.w3.org/1999/02/22-rdf-syntax-ns#"
	 xmlns="http://www.w3.org/2000/svg" xmlns:xlink="http://www.w3.org/1999/xlink" x="0px" y="0px" viewBox="0 0 740 280"
	 style="enable-background:new 0 0 740 280;" xml:space="preserve">
<style type="text/css">
	.st0{fill:#FF6635;}
	.st1{fill:#357EC0;}
	.st2{fill:#C8C8C8;}
</style>
<g>
	<path class="st0" d="M131.3,61.4h30.3V42h8.6v47.6h-8.6V70.1h-30.3v19.5h-8.6V42h8.6V61.4z"/>
	<path class="st0" d="M217.7,65.6c0,1.2-0.2,2.5-0.6,3.9c-0.4,1.4-1.1,2.7-2,3.9c-0.9,1.2-2.2,2.2-3.7,3c-1.5,0.8-3.4,1.2-5.5,1.2
		h-15.6v-8.2h15.6c1.2,0,2.1-0.4,2.7-1.1c0.6-0.7,1-1.6,1-2.7c0-1.1-0.4-2-1.1-2.7c-0.7-0.6-1.6-1-2.6-1h-15.6
		c-1.2,0-2.1,0.4-2.7,1.1c-0.6,0.7-1,1.6-1,2.7v12.1c0,1.2,0.4,2,1.1,2.7c0.7,0.6,1.6,1,2.7,1h15.5v8.2h-15.6
		c-1.2,0-2.5-0.2-3.9-0.6c-1.4-0.4-2.7-1.1-3.9-2c-1.2-0.9-2.2-2.2-3-3.7c-0.8-1.5-1.2-3.4-1.2-5.5V65.6c0-1.2,0.2-2.5,0.6-3.9
		c0.4-1.4,1.1-2.7,2-3.9c0.9-1.2,2.2-2.2,3.7-3c1.5-0.8,3.4-1.2,5.5-1.2h15.6c1.2,0,2.5,0.2,3.9,0.6c1.4,0.4,2.7,1.1,3.9,2
		c1.2,0.9,2.2,2.2,3,3.7C217.3,61.5,217.7,63.4,217.7,65.6z"/>
	<path class="st0" d="M260.3,77.7c0,1.2-0.2,2.5-0.6,3.9c-0.4,1.4-1.1,2.7-2,3.9c-0.9,1.2-2.2,2.2-3.7,3c-1.5,0.8-3.4,1.2-5.5,1.2
		h-15.6c-1.2,0-2.5-0.2-3.9-0.6c-1.4-0.4-2.7-1.1-3.9-2c-1.2-0.9-2.2-2.2-3-3.7c-0.8-1.5-1.2-3.4-1.2-5.5c0-1.2,0.2-2.5,0.6-3.9
		c0.4-1.4,1.1-2.7,2-3.9c0.9-1.2,2.2-2.2,3.7-3c1.5-0.8,3.4-1.2,5.5-1.2h15.6V74h-15.6c-1.2,0-2.1,0.4-2.7,1.1c-0.6,0.7-1,1.6-1,2.7
		c0,1.1,0.4,2,1.1,2.6c0.7,0.6,1.6,0.9,2.6,0.9h15.5c1.2,0,2.1-0.4,2.7-1.1c0.6-0.7,1-1.6,1-2.7V65.6c0-1.1-0.3-2-1-2.7
		s-1.6-1-2.6-1h-19v-8.2h19c1.2,0,2.5,0.2,3.9,0.6c1.4,0.4,2.7,1.1,3.9,2c1.2,0.9,2.2,2.2,3,3.7c0.8,1.5,1.2,3.4,1.2,5.5V77.7z"/>
	<path class="st0" d="M307.1,77.4c0,1.5-0.2,2.8-0.6,4c-0.4,1.2-0.9,2.2-1.5,3.1c-0.6,0.9-1.3,1.7-2.2,2.3c-0.8,0.6-1.7,1.1-2.6,1.5
		s-1.8,0.7-2.7,0.9c-0.9,0.2-1.8,0.3-2.6,0.3h-15.6c-1.5,0-2.8-0.2-4-0.6c-1.2-0.4-2.2-0.9-3.1-1.5s-1.7-1.4-2.3-2.2
		c-0.6-0.8-1.1-1.7-1.5-2.6s-0.7-1.8-0.9-2.7c-0.2-0.9-0.3-1.8-0.3-2.6V65.8c0-2.2,0.4-4.1,1.2-5.6c0.8-1.5,1.8-2.8,3-3.8
		c1.2-1,2.5-1.7,3.9-2.1c1.4-0.4,2.7-0.6,3.9-0.6H295v8.6h-15.5c-1.2,0-2,0.3-2.6,0.9c-0.6,0.6-0.9,1.4-0.9,2.6v11.6
		c0,1.2,0.3,2.1,0.9,2.7c0.6,0.6,1.4,0.9,2.6,0.9H295c1.2,0,2-0.3,2.6-0.9c0.6-0.6,0.9-1.5,0.9-2.6V38.5h8.6V77.4z"/>
	<path class="st1" d="M381,89.6h-31.1c-0.8,0-1.7-0.1-2.6-0.3c-0.9-0.2-1.8-0.5-2.7-0.9s-1.8-0.9-2.6-1.5c-0.8-0.6-1.5-1.4-2.2-2.3
		s-1.1-1.9-1.5-3.1c-0.4-1.2-0.6-2.5-0.6-4V54.1c0-0.8,0.1-1.7,0.3-2.6c0.2-0.9,0.5-1.8,0.9-2.7s0.9-1.8,1.6-2.6
		c0.6-0.8,1.4-1.5,2.3-2.2s1.9-1.1,3.1-1.5c1.2-0.4,2.5-0.6,4-0.6H381v8.6h-31.1c-1.1,0-2,0.3-2.6,0.9s-0.9,1.5-0.9,2.7v23.3
		c0,1.1,0.3,2,0.9,2.6c0.6,0.6,1.5,0.9,2.6,0.9H381V89.6z"/>
	<path class="st1" d="M404,89.6h-3.9c-1.2,0-2.6-0.2-4-0.6c-1.4-0.4-2.7-1.1-3.9-2.1c-1.2-1-2.2-2.2-3-3.8c-0.8-1.5-1.2-3.4-1.2-5.7
		V38.5h8.6v38.9c0,1.1,0.3,1.9,1,2.5s1.5,0.9,2.5,0.9h3.9V89.6z"/>
	<path class="st1" d="M448.2,65.6c0,1.2-0.2,2.5-0.6,3.9c-0.4,1.4-1.1,2.7-2,3.9c-0.9,1.2-2.2,2.2-3.7,3c-1.5,0.8-3.4,1.2-5.5,1.2
		h-15.6v-8.2h15.6c1.2,0,2.1-0.4,2.7-1.1c0.6-0.7,1-1.6,1-2.7c0-1.1-0.4-2-1.1-2.7c-0.7-0.6-1.6-1-2.6-1h-15.6
		c-1.2,0-2.1,0.4-2.7,1.1c-0.6,0.7-1,1.6-1,2.7v12.1c0,1.2,0.4,2,1.1,2.7c0.7,0.6,1.6,1,2.7,1h15.5v8.2h-15.6
		c-1.2,0-2.5-0.2-3.9-0.6c-1.4-0.4-2.7-1.1-3.9-2c-1.2-0.9-2.2-2.2-3-3.7c-0.8-1.5-1.2-3.4-1.2-5.5V65.6c0-1.2,0.2-2.5,0.6-3.9
		c0.4-1.4,1.1-2.7,2-3.9c0.9-1.2,2.2-2.2,3.7-3c1.5-0.8,3.4-1.2,5.5-1.2h15.6c1.2,0,2.5,0.2,3.9,0.6c1.4,0.4,2.7,1.1,3.9,2
		c1.2,0.9,2.2,2.2,3,3.7C447.8,61.5,448.2,63.4,448.2,65.6z"/>
	<path class="st1" d="M490.8,77.7c0,1.2-0.2,2.5-0.6,3.9c-0.4,1.4-1.1,2.7-2,3.9c-0.9,1.2-2.2,2.2-3.7,3c-1.5,0.8-3.4,1.2-5.5,1.2
		h-15.6c-1.2,0-2.5-0.2-3.9-0.6c-1.4-0.4-2.7-1.1-3.9-2c-1.2-0.9-2.2-2.2-3-3.7c-0.8-1.5-1.2-3.4-1.2-5.5c0-1.2,0.2-2.5,0.6-3.9
		c0.4-1.4,1.1-2.7,2-3.9c0.9-1.2,2.2-2.2,3.7-3c1.5-0.8,3.4-1.2,5.5-1.2h15.6V74h-15.6c-1.2,0-2.1,0.4-2.7,1.1c-0.6,0.7-1,1.6-1,2.7
		c0,1.1,0.4,2,1.1,2.6c0.7,0.6,1.6,0.9,2.6,0.9h15.5c1.2,0,2.1-0.4,2.7-1.1c0.6-0.7,1-1.6,1-2.7V65.6c0-1.1-0.3-2-1-2.7
		s-1.6-1-2.6-1h-19v-8.2h19c1.2,0,2.5,0.2,3.9,0.6c1.4,0.4,2.7,1.1,3.9,2c1.2,0.9,2.2,2.2,3,3.7c0.8,1.5,1.2,3.4,1.2,5.5V77.7z"/>
	<path class="st1" d="M537.9,89.6h-8.6V69.6c0-1.1-0.2-2.1-0.6-3c-0.4-0.9-0.9-1.7-1.6-2.3c-0.7-0.6-1.4-1.1-2.3-1.5
		c-0.9-0.3-1.9-0.5-2.9-0.5h-15.1v27.3h-8.6V58c0-0.6,0.1-1.2,0.3-1.7c0.2-0.5,0.5-1,0.9-1.4c0.4-0.4,0.9-0.7,1.4-0.9
		c0.5-0.2,1.1-0.3,1.7-0.3H522c1.1,0,2.2,0.1,3.4,0.4c1.2,0.2,2.4,0.6,3.6,1.2c1.2,0.5,2.3,1.2,3.4,2.1c1.1,0.8,2,1.8,2.9,3
		c0.8,1.2,1.5,2.6,2,4.1c0.5,1.5,0.7,3.3,0.7,5.2V89.6z"/>
	<path class="st1" d="M584.1,65.6c0,1.2-0.2,2.5-0.6,3.9c-0.4,1.4-1.1,2.7-2,3.9c-0.9,1.2-2.2,2.2-3.7,3c-1.5,0.8-3.4,1.2-5.5,1.2
		h-15.6v-8.2h15.6c1.2,0,2.1-0.4,2.7-1.1c0.6-0.7,1-1.6,1-2.7c0-1.1-0.4-2-1.1-2.7c-0.7-0.6-1.6-1-2.6-1h-15.6
		c-1.2,0-2.1,0.4-2.7,1.1c-0.6,0.7-1,1.6-1,2.7v12.1c0,1.2,0.4,2,1.1,2.7c0.7,0.6,1.6,1,2.7,1h15.5v8.2h-15.6
		c-1.2,0-2.5-0.2-3.9-0.6c-1.4-0.4-2.7-1.1-3.9-2c-1.2-0.9-2.2-2.2-3-3.7c-0.8-1.5-1.2-3.4-1.2-5.5V65.6c0-1.2,0.2-2.5,0.6-3.9
		c0.4-1.4,1.1-2.7,2-3.9c0.9-1.2,2.2-2.2,3.7-3c1.5-0.8,3.4-1.2,5.5-1.2h15.6c1.2,0,2.5,0.2,3.9,0.6c1.4,0.4,2.7,1.1,3.9,2
		c1.2,0.9,2.2,2.2,3,3.7C583.7,61.5,584.1,63.4,584.1,65.6z"/>
	<path class="st1" d="M621.3,62.3h-19.4c-1.2,0-2.1,0.3-2.7,0.9c-0.6,0.6-0.9,1.4-0.9,2.6v23.8h-8.6V65.8c0-1.5,0.2-2.8,0.6-4
		c0.4-1.2,0.9-2.2,1.5-3.1s1.4-1.7,2.2-2.3c0.8-0.6,1.7-1.1,2.6-1.5s1.8-0.7,2.7-0.9c0.9-0.2,1.8-0.3,2.6-0.3h19.5V62.3z"/>
</g>
<g>
	<path class="st2" d="M70,138.6l-3.5-6.4H64v6.4h-2.9v-16.4h5.5c0.9,0,1.6,0.1,2.4,0.2c0.7,0.2,1.4,0.4,1.9,0.8
		c0.5,0.4,1,0.9,1.3,1.5c0.3,0.6,0.5,1.4,0.5,2.3c0,1.2-0.3,2.3-0.9,3c-0.6,0.8-1.4,1.3-2.4,1.6l3.9,6.8H70z M64,129.9h2.3
		c1.1,0,2-0.2,2.6-0.7c0.6-0.5,0.9-1.2,0.9-2.1c0-1-0.3-1.6-0.9-2c-0.6-0.4-1.4-0.5-2.6-0.5H64V129.9z"/>
	<path class="st2" d="M74.8,132.5c0-1,0.2-1.9,0.5-2.7c0.3-0.8,0.7-1.5,1.3-2c0.5-0.5,1.1-1,1.8-1.3c0.7-0.3,1.4-0.5,2.1-0.5
		c0.8,0,1.6,0.1,2.2,0.4c0.6,0.3,1.2,0.7,1.6,1.2c0.4,0.5,0.7,1.1,1,1.9c0.2,0.7,0.3,1.5,0.3,2.4c0,0.6,0,1-0.1,1.4h-7.8
		c0.1,1.1,0.5,2,1.2,2.6c0.6,0.6,1.5,0.9,2.5,0.9c0.5,0,1-0.1,1.5-0.2c0.5-0.2,0.9-0.4,1.4-0.7l1,1.8c-0.6,0.4-1.2,0.7-1.9,0.9
		c-0.7,0.2-1.5,0.4-2.2,0.4c-0.9,0-1.6-0.1-2.4-0.4c-0.7-0.3-1.4-0.7-1.9-1.3c-0.5-0.6-1-1.2-1.3-2
		C74.9,134.4,74.8,133.5,74.8,132.5z M83,131.4c0-1-0.2-1.8-0.6-2.3c-0.4-0.6-1-0.8-1.9-0.8c-0.7,0-1.4,0.3-1.9,0.8
		c-0.6,0.5-0.9,1.3-1,2.3H83z"/>
	<path class="st2" d="M88.2,126.4h2.4l0.2,1.7h0.1c0.5-0.5,1.1-1,1.7-1.4c0.6-0.4,1.3-0.6,2.1-0.6c0.9,0,1.6,0.2,2.2,0.6
		c0.5,0.4,1,0.9,1.2,1.6c0.6-0.6,1.2-1.2,1.8-1.6c0.6-0.4,1.3-0.6,2.1-0.6c1.3,0,2.3,0.4,2.9,1.3c0.6,0.8,0.9,2,0.9,3.6v7.7h-2.9
		v-7.3c0-1-0.2-1.7-0.5-2.1c-0.3-0.4-0.8-0.6-1.4-0.6c-0.8,0-1.6,0.5-2.6,1.5v8.6h-2.9v-7.3c0-1-0.2-1.7-0.5-2.1
		c-0.3-0.4-0.8-0.6-1.4-0.6c-0.8,0-1.6,0.5-2.6,1.5v8.6h-2.9V126.4z"/>
	<path class="st2" d="M108.5,132.5c0-1,0.2-1.9,0.5-2.7c0.3-0.8,0.7-1.5,1.3-2c0.5-0.5,1.2-1,1.9-1.3c0.7-0.3,1.4-0.4,2.2-0.4
		c0.8,0,1.5,0.1,2.2,0.4c0.7,0.3,1.3,0.7,1.9,1.3s1,1.2,1.3,2c0.3,0.8,0.5,1.7,0.5,2.7s-0.2,1.9-0.5,2.7c-0.3,0.8-0.8,1.5-1.3,2
		s-1.2,1-1.9,1.2c-0.7,0.3-1.4,0.4-2.2,0.4c-0.8,0-1.5-0.1-2.2-0.4c-0.7-0.3-1.3-0.7-1.9-1.2c-0.5-0.5-1-1.2-1.3-2
		C108.7,134.4,108.5,133.5,108.5,132.5z M111.4,132.5c0,1.2,0.3,2.2,0.8,3c0.5,0.7,1.2,1.1,2.1,1.1s1.6-0.4,2.1-1.1
		c0.5-0.7,0.8-1.7,0.8-3c0-1.2-0.3-2.2-0.8-3c-0.5-0.7-1.2-1.1-2.1-1.1s-1.6,0.4-2.1,1.1S111.4,131.3,111.4,132.5z"/>
	<path class="st2" d="M121.3,126.4h2.9l1.9,6.4c0.2,0.6,0.3,1.2,0.5,1.8c0.2,0.6,0.3,1.2,0.5,1.9h0.1c0.2-0.6,0.4-1.3,0.5-1.9
		c0.2-0.6,0.3-1.2,0.5-1.8l1.9-6.4h2.8l-4.2,12.3h-3.3L121.3,126.4z"/>
	<path class="st2" d="M134.3,132.5c0-1,0.2-1.9,0.5-2.7c0.3-0.8,0.7-1.5,1.3-2c0.5-0.5,1.1-1,1.8-1.3c0.7-0.3,1.4-0.5,2.1-0.5
		c0.8,0,1.6,0.1,2.2,0.4c0.6,0.3,1.2,0.7,1.6,1.2c0.4,0.5,0.7,1.1,1,1.9c0.2,0.7,0.3,1.5,0.3,2.4c0,0.6,0,1-0.1,1.4h-7.8
		c0.1,1.1,0.5,2,1.2,2.6c0.6,0.6,1.5,0.9,2.5,0.9c0.5,0,1-0.1,1.5-0.2c0.5-0.2,0.9-0.4,1.4-0.7l1,1.8c-0.6,0.4-1.2,0.7-1.9,0.9
		c-0.7,0.2-1.5,0.4-2.2,0.4c-0.9,0-1.6-0.1-2.4-0.4c-0.7-0.3-1.4-0.7-1.9-1.3c-0.5-0.6-1-1.2-1.3-2
		C134.5,134.4,134.3,133.5,134.3,132.5z M142.5,131.4c0-1-0.2-1.8-0.6-2.3c-0.4-0.6-1-0.8-1.9-0.8c-0.7,0-1.4,0.3-1.9,0.8
		c-0.6,0.5-0.9,1.3-1,2.3H142.5z"/>
	<path class="st2" d="M155.6,135.4c0.5,0.4,1.1,0.8,1.6,1s1.1,0.4,1.8,0.4c0.7,0,1.2-0.1,1.5-0.4c0.3-0.3,0.5-0.6,0.5-1.1
		c0-0.2-0.1-0.5-0.2-0.7c-0.2-0.2-0.4-0.4-0.6-0.5s-0.5-0.3-0.9-0.4c-0.3-0.1-0.6-0.3-1-0.4c-0.4-0.1-0.8-0.3-1.2-0.5
		c-0.4-0.2-0.8-0.4-1.1-0.7c-0.3-0.3-0.6-0.6-0.8-1c-0.2-0.4-0.3-0.8-0.3-1.3c0-1.1,0.4-2,1.2-2.6c0.8-0.7,1.9-1,3.3-1
		c0.8,0,1.6,0.2,2.3,0.5c0.7,0.3,1.3,0.6,1.8,1l-1.3,1.8c-0.4-0.3-0.9-0.6-1.3-0.8c-0.4-0.2-0.9-0.3-1.4-0.3c-0.6,0-1.1,0.1-1.4,0.4
		c-0.3,0.3-0.4,0.6-0.4,1c0,0.2,0.1,0.5,0.2,0.6c0.1,0.2,0.3,0.3,0.6,0.5c0.2,0.1,0.5,0.3,0.8,0.4c0.3,0.1,0.6,0.2,1,0.4
		c0.4,0.1,0.8,0.3,1.2,0.5c0.4,0.2,0.8,0.4,1.1,0.7c0.3,0.3,0.6,0.6,0.8,1c0.2,0.4,0.3,0.9,0.3,1.5c0,0.5-0.1,1-0.3,1.5
		c-0.2,0.5-0.5,0.9-0.9,1.2c-0.4,0.3-0.9,0.6-1.5,0.8c-0.6,0.2-1.3,0.3-2,0.3c-0.9,0-1.7-0.2-2.5-0.5c-0.8-0.3-1.5-0.7-2.1-1.2
		L155.6,135.4z"/>
	<path class="st2" d="M169.1,139.6v3.9h-2.9v-17.1h2.4l0.2,1.3h0.1c0.5-0.4,1.1-0.8,1.7-1.1c0.6-0.3,1.3-0.5,2-0.5
		c0.8,0,1.4,0.1,2,0.4c0.6,0.3,1.1,0.7,1.5,1.3c0.4,0.5,0.7,1.2,1,2c0.2,0.8,0.3,1.6,0.3,2.6c0,1.1-0.1,2-0.4,2.8
		c-0.3,0.8-0.7,1.5-1.2,2.1c-0.5,0.6-1,1-1.7,1.3c-0.6,0.3-1.3,0.4-2,0.4c-0.5,0-1.1-0.1-1.6-0.3c-0.5-0.2-1-0.6-1.5-1L169.1,139.6z
		 M169.1,135.5c0.4,0.4,0.9,0.6,1.3,0.8c0.4,0.1,0.8,0.2,1.2,0.2c0.8,0,1.5-0.4,2.1-1.1c0.5-0.7,0.8-1.8,0.8-3.2
		c0-1.2-0.2-2.2-0.6-2.9s-1.1-1-2-1c-0.9,0-1.8,0.5-2.7,1.4V135.5z"/>
	<path class="st2" d="M179.5,132.5c0-1,0.2-1.9,0.5-2.7c0.3-0.8,0.7-1.5,1.3-2c0.5-0.5,1.1-1,1.8-1.3c0.7-0.3,1.4-0.5,2.1-0.5
		c0.8,0,1.6,0.1,2.2,0.4c0.6,0.3,1.2,0.7,1.6,1.2c0.4,0.5,0.7,1.1,1,1.9c0.2,0.7,0.3,1.5,0.3,2.4c0,0.6,0,1-0.1,1.4h-7.8
		c0.1,1.1,0.5,2,1.2,2.6c0.6,0.6,1.5,0.9,2.5,0.9c0.5,0,1-0.1,1.5-0.2c0.5-0.2,0.9-0.4,1.4-0.7l1,1.8c-0.6,0.4-1.2,0.7-1.9,0.9
		c-0.7,0.2-1.5,0.4-2.2,0.4c-0.9,0-1.6-0.1-2.4-0.4c-0.7-0.3-1.4-0.7-1.9-1.3c-0.5-0.6-1-1.2-1.3-2
		C179.7,134.4,179.5,133.5,179.5,132.5z M187.8,131.4c0-1-0.2-1.8-0.6-2.3c-0.4-0.6-1-0.8-1.9-0.8c-0.7,0-1.4,0.3-1.9,0.8
		c-0.6,0.5-0.9,1.3-1,2.3H187.8z"/>
	<path class="st2" d="M192.2,132.5c0-1,0.2-1.9,0.5-2.7c0.3-0.8,0.8-1.5,1.4-2c0.6-0.5,1.2-1,2-1.3c0.7-0.3,1.5-0.4,2.3-0.4
		c0.8,0,1.5,0.1,2.1,0.4c0.6,0.3,1.1,0.6,1.5,1l-1.4,1.8c-0.3-0.3-0.7-0.5-1-0.7s-0.7-0.2-1.1-0.2c-1,0-1.8,0.4-2.4,1.1
		s-0.9,1.7-0.9,3c0,1.2,0.3,2.2,0.9,3c0.6,0.7,1.4,1.1,2.4,1.1c0.5,0,1-0.1,1.4-0.3c0.4-0.2,0.8-0.5,1.1-0.7l1.2,1.8
		c-0.6,0.5-1.2,0.9-1.9,1.2c-0.7,0.3-1.4,0.4-2.1,0.4c-0.8,0-1.6-0.1-2.3-0.4c-0.7-0.3-1.4-0.7-1.9-1.2c-0.5-0.5-1-1.2-1.2-2
		C192.4,134.4,192.2,133.5,192.2,132.5z"/>
	<path class="st2" d="M206,124.2c-0.5,0-0.9-0.2-1.3-0.5c-0.3-0.3-0.5-0.7-0.5-1.2s0.2-0.9,0.5-1.2c0.3-0.3,0.8-0.5,1.3-0.5
		s0.9,0.2,1.3,0.5s0.5,0.7,0.5,1.2s-0.2,0.9-0.5,1.2S206.5,124.2,206,124.2z M204.6,126.4h2.9v12.3h-2.9V126.4z"/>
	<path class="st2" d="M217.4,123.3c-0.5-0.2-0.9-0.3-1.4-0.3c-1,0-1.5,0.7-1.5,2.1v1.3h2.4v2.3h-2.4v10h-2.9v-10H210v-2.1l1.7-0.1
		v-1.3c0-0.6,0.1-1.2,0.2-1.8c0.2-0.5,0.4-1,0.7-1.4s0.8-0.7,1.3-0.9c0.5-0.2,1.1-0.3,1.9-0.3c0.4,0,0.8,0,1.2,0.1
		c0.4,0.1,0.7,0.2,1,0.3L217.4,123.3z"/>
	<path class="st2" d="M220.5,124.2c-0.5,0-0.9-0.2-1.3-0.5c-0.3-0.3-0.5-0.7-0.5-1.2s0.2-0.9,0.5-1.2c0.3-0.3,0.8-0.5,1.3-0.5
		s0.9,0.2,1.3,0.5s0.5,0.7,0.5,1.2s-0.2,0.9-0.5,1.2S221,124.2,220.5,124.2z M219,126.4h2.9v12.3H219V126.4z"/>
	<path class="st2" d="M224.8,132.5c0-1,0.2-1.9,0.5-2.7c0.3-0.8,0.8-1.5,1.4-2c0.6-0.5,1.2-1,2-1.3c0.7-0.3,1.5-0.4,2.3-0.4
		c0.8,0,1.5,0.1,2.1,0.4c0.6,0.3,1.1,0.6,1.5,1l-1.4,1.8c-0.3-0.3-0.7-0.5-1-0.7s-0.7-0.2-1.1-0.2c-1,0-1.8,0.4-2.4,1.1
		s-0.9,1.7-0.9,3c0,1.2,0.3,2.2,0.9,3c0.6,0.7,1.4,1.1,2.4,1.1c0.5,0,1-0.1,1.4-0.3c0.4-0.2,0.8-0.5,1.1-0.7l1.2,1.8
		c-0.6,0.5-1.2,0.9-1.9,1.2c-0.7,0.3-1.4,0.4-2.1,0.4c-0.8,0-1.6-0.1-2.3-0.4c-0.7-0.3-1.4-0.7-1.9-1.2c-0.5-0.5-1-1.2-1.2-2
		C224.9,134.4,224.8,133.5,224.8,132.5z"/>
	<path class="st2" d="M245.2,128.6h-1.8v-2.1l1.9-0.1l0.4-3.4h2.4v3.4h3.1v2.3h-3.1v5.9c0,1.4,0.6,2.1,1.7,2.1c0.2,0,0.4,0,0.7-0.1
		c0.2,0,0.4-0.1,0.6-0.2l0.5,2.1c-0.3,0.1-0.7,0.2-1.1,0.3c-0.4,0.1-0.9,0.1-1.4,0.1c-0.7,0-1.3-0.1-1.8-0.3s-0.9-0.5-1.2-0.9
		c-0.3-0.4-0.5-0.9-0.7-1.4s-0.2-1.1-0.2-1.8V128.6z"/>
	<path class="st2" d="M252.9,135.4c0-1.3,0.6-2.3,1.7-3.1c1.1-0.7,3-1.2,5.5-1.5c0-0.3,0-0.6-0.1-0.9c-0.1-0.3-0.2-0.5-0.4-0.8
		c-0.2-0.2-0.4-0.4-0.7-0.5s-0.6-0.2-1-0.2c-0.6,0-1.2,0.1-1.8,0.4c-0.6,0.2-1.1,0.5-1.7,0.9l-1.1-1.9c0.7-0.4,1.4-0.8,2.3-1.1
		c0.8-0.3,1.8-0.5,2.7-0.5c1.5,0,2.7,0.5,3.4,1.4c0.8,0.9,1.1,2.2,1.1,3.9v7.3h-2.4l-0.2-1.4h-0.1c-0.5,0.5-1.1,0.9-1.8,1.2
		s-1.3,0.5-2,0.5c-1.1,0-2-0.3-2.6-1C253.3,137.3,252.9,136.4,252.9,135.4z M255.7,135.1c0,0.5,0.2,0.9,0.5,1.2
		c0.3,0.2,0.7,0.4,1.3,0.4c0.5,0,1-0.1,1.4-0.3c0.4-0.2,0.9-0.6,1.3-1v-2.8c-0.8,0.1-1.5,0.2-2.1,0.4s-1,0.4-1.4,0.6
		c-0.3,0.2-0.6,0.4-0.7,0.7C255.8,134.5,255.7,134.8,255.7,135.1z"/>
	<path class="st2" d="M265.7,140.9c0-0.5,0.1-1,0.5-1.4c0.3-0.4,0.7-0.8,1.3-1.2v-0.1c-0.3-0.2-0.6-0.5-0.8-0.8s-0.3-0.8-0.3-1.2
		c0-0.5,0.1-0.9,0.4-1.3s0.6-0.7,0.9-1v-0.1c-0.4-0.3-0.8-0.8-1.1-1.3c-0.3-0.6-0.5-1.2-0.5-1.9c0-0.7,0.1-1.3,0.4-1.9
		c0.3-0.6,0.6-1,1.1-1.4s1-0.7,1.5-0.9c0.6-0.2,1.2-0.3,1.9-0.3c0.3,0,0.7,0,1,0.1c0.3,0.1,0.6,0.1,0.8,0.2h4.4v2.1h-2.2
		c0.2,0.2,0.4,0.5,0.5,0.9c0.1,0.4,0.2,0.8,0.2,1.2c0,0.7-0.1,1.3-0.4,1.8c-0.2,0.5-0.6,0.9-1,1.3s-0.9,0.6-1.5,0.8
		c-0.6,0.2-1.2,0.3-1.8,0.3c-0.3,0-0.5,0-0.8-0.1c-0.3,0-0.6-0.1-0.8-0.2c-0.2,0.2-0.3,0.3-0.4,0.5c-0.1,0.2-0.2,0.4-0.2,0.7
		c0,0.3,0.1,0.6,0.4,0.8c0.3,0.2,0.8,0.3,1.6,0.3h2.2c1.5,0,2.6,0.2,3.4,0.7c0.8,0.5,1.1,1.2,1.1,2.3c0,0.6-0.2,1.2-0.5,1.7
		c-0.3,0.5-0.7,1-1.3,1.4c-0.6,0.4-1.3,0.7-2.1,0.9c-0.8,0.2-1.7,0.3-2.7,0.3c-0.7,0-1.4-0.1-2-0.2s-1.2-0.3-1.6-0.6
		c-0.5-0.3-0.8-0.6-1.1-1C265.8,141.9,265.7,141.4,265.7,140.9z M268.1,140.4c0,0.6,0.3,1,0.8,1.3c0.6,0.3,1.3,0.5,2.3,0.5
		c1,0,1.8-0.2,2.4-0.6c0.6-0.4,0.9-0.9,0.9-1.4c0-0.5-0.2-0.8-0.6-1c-0.4-0.2-0.9-0.2-1.6-0.2h-1.7c-0.7,0-1.2-0.1-1.7-0.2
		C268.4,139.3,268.1,139.9,268.1,140.4z M271,132.9c0.6,0,1.1-0.2,1.5-0.6c0.4-0.4,0.6-1,0.6-1.8c0-0.8-0.2-1.4-0.6-1.8
		c-0.4-0.4-0.9-0.6-1.5-0.6s-1.1,0.2-1.5,0.6c-0.4,0.4-0.6,1-0.6,1.8c0,0.8,0.2,1.4,0.6,1.8C269.8,132.7,270.4,132.9,271,132.9z"/>
	<path class="st2" d="M279.7,135.4c0.5,0.4,1.1,0.8,1.6,1s1.1,0.4,1.8,0.4c0.7,0,1.2-0.1,1.5-0.4c0.3-0.3,0.5-0.6,0.5-1.1
		c0-0.2-0.1-0.5-0.2-0.7c-0.2-0.2-0.4-0.4-0.6-0.5s-0.5-0.3-0.9-0.4c-0.3-0.1-0.6-0.3-1-0.4c-0.4-0.1-0.8-0.3-1.2-0.5
		c-0.4-0.2-0.8-0.4-1.1-0.7c-0.3-0.3-0.6-0.6-0.8-1c-0.2-0.4-0.3-0.8-0.3-1.3c0-1.1,0.4-2,1.2-2.6c0.8-0.7,1.9-1,3.3-1
		c0.8,0,1.6,0.2,2.3,0.5c0.7,0.3,1.3,0.6,1.8,1l-1.3,1.8c-0.4-0.3-0.9-0.6-1.3-0.8c-0.4-0.2-0.9-0.3-1.4-0.3c-0.6,0-1.1,0.1-1.4,0.4
		c-0.3,0.3-0.4,0.6-0.4,1c0,0.2,0.1,0.5,0.2,0.6c0.1,0.2,0.3,0.3,0.6,0.5c0.2,0.1,0.5,0.3,0.8,0.4c0.3,0.1,0.6,0.2,1,0.4
		c0.4,0.1,0.8,0.3,1.2,0.5c0.4,0.2,0.8,0.4,1.1,0.7c0.3,0.3,0.6,0.6,0.8,1c0.2,0.4,0.3,0.9,0.3,1.5c0,0.5-0.1,1-0.3,1.5
		c-0.2,0.5-0.5,0.9-0.9,1.2c-0.4,0.3-0.9,0.6-1.5,0.8c-0.6,0.2-1.3,0.3-2,0.3c-0.9,0-1.7-0.2-2.5-0.5c-0.8-0.3-1.5-0.7-2.1-1.2
		L279.7,135.4z"/>
	<path class="st2" d="M304.3,123.3c-0.5-0.2-0.9-0.3-1.4-0.3c-1,0-1.5,0.7-1.5,2.1v1.3h2.4v2.3h-2.4v10h-2.9v-10h-1.7v-2.1l1.7-0.1
		v-1.3c0-0.6,0.1-1.2,0.2-1.8c0.2-0.5,0.4-1,0.7-1.4s0.8-0.7,1.3-0.9c0.5-0.2,1.1-0.3,1.9-0.3c0.4,0,0.8,0,1.2,0.1
		c0.4,0.1,0.7,0.2,1,0.3L304.3,123.3z"/>
	<path class="st2" d="M305.9,126.4h2.4l0.2,2.2h0.1c0.4-0.8,1-1.4,1.6-1.8c0.6-0.4,1.2-0.6,1.9-0.6c0.6,0,1,0.1,1.4,0.2l-0.5,2.5
		c-0.2-0.1-0.4-0.1-0.6-0.1c-0.2,0-0.4,0-0.7,0c-0.5,0-1,0.2-1.5,0.6c-0.5,0.4-1,1-1.4,2v7.5h-2.9V126.4z"/>
	<path class="st2" d="M314.2,132.5c0-1,0.2-1.9,0.5-2.7c0.3-0.8,0.7-1.5,1.3-2c0.5-0.5,1.2-1,1.9-1.3c0.7-0.3,1.4-0.4,2.2-0.4
		c0.8,0,1.5,0.1,2.2,0.4c0.7,0.3,1.3,0.7,1.9,1.3s1,1.2,1.3,2c0.3,0.8,0.5,1.7,0.5,2.7s-0.2,1.9-0.5,2.7c-0.3,0.8-0.8,1.5-1.3,2
		s-1.2,1-1.9,1.2c-0.7,0.3-1.4,0.4-2.2,0.4c-0.8,0-1.5-0.1-2.2-0.4c-0.7-0.3-1.3-0.7-1.9-1.2c-0.5-0.5-1-1.2-1.3-2
		C314.3,134.4,314.2,133.5,314.2,132.5z M317.1,132.5c0,1.2,0.3,2.2,0.8,3c0.5,0.7,1.2,1.1,2.1,1.1s1.6-0.4,2.1-1.1
		c0.5-0.7,0.8-1.7,0.8-3c0-1.2-0.3-2.2-0.8-3c-0.5-0.7-1.2-1.1-2.1-1.1s-1.6,0.4-2.1,1.1S317.1,131.3,317.1,132.5z"/>
	<path class="st2" d="M328.7,126.4h2.4l0.2,1.7h0.1c0.5-0.5,1.1-1,1.7-1.4c0.6-0.4,1.3-0.6,2.1-0.6c0.9,0,1.6,0.2,2.2,0.6
		c0.5,0.4,1,0.9,1.2,1.6c0.6-0.6,1.2-1.2,1.8-1.6c0.6-0.4,1.3-0.6,2.1-0.6c1.3,0,2.3,0.4,2.9,1.3c0.6,0.8,0.9,2,0.9,3.6v7.7h-2.9
		v-7.3c0-1-0.2-1.7-0.5-2.1c-0.3-0.4-0.8-0.6-1.4-0.6c-0.8,0-1.6,0.5-2.6,1.5v8.6h-2.9v-7.3c0-1-0.2-1.7-0.5-2.1
		c-0.3-0.4-0.8-0.6-1.4-0.6c-0.8,0-1.6,0.5-2.6,1.5v8.6h-2.9V126.4z"/>
	<path class="st2" d="M357.9,128.6h-1.8v-2.1l1.9-0.1l0.4-3.4h2.4v3.4h3.1v2.3h-3.1v5.9c0,1.4,0.6,2.1,1.7,2.1c0.2,0,0.4,0,0.7-0.1
		c0.2,0,0.4-0.1,0.6-0.2l0.5,2.1c-0.3,0.1-0.7,0.2-1.1,0.3c-0.4,0.1-0.9,0.1-1.4,0.1c-0.7,0-1.3-0.1-1.8-0.3s-0.9-0.5-1.2-0.9
		c-0.3-0.4-0.5-0.9-0.7-1.4s-0.2-1.1-0.2-1.8V128.6z"/>
	<path class="st2" d="M366.5,121h2.9v4.5l-0.1,2.4c0.5-0.5,1.1-0.9,1.7-1.3s1.4-0.6,2.2-0.6c1.3,0,2.3,0.4,2.9,1.3
		c0.6,0.8,0.9,2,0.9,3.6v7.7h-2.9v-7.3c0-1-0.1-1.7-0.5-2.1c-0.3-0.4-0.8-0.6-1.5-0.6c-0.5,0-1,0.1-1.4,0.4
		c-0.4,0.3-0.9,0.6-1.4,1.1v8.6h-2.9V121z"/>
	<path class="st2" d="M379.6,132.5c0-1,0.2-1.9,0.5-2.7c0.3-0.8,0.7-1.5,1.3-2c0.5-0.5,1.1-1,1.8-1.3c0.7-0.3,1.4-0.5,2.1-0.5
		c0.8,0,1.6,0.1,2.2,0.4c0.6,0.3,1.2,0.7,1.6,1.2c0.4,0.5,0.7,1.1,1,1.9c0.2,0.7,0.3,1.5,0.3,2.4c0,0.6,0,1-0.1,1.4h-7.8
		c0.1,1.1,0.5,2,1.2,2.6c0.6,0.6,1.5,0.9,2.5,0.9c0.5,0,1-0.1,1.5-0.2c0.5-0.2,0.9-0.4,1.4-0.7l1,1.8c-0.6,0.4-1.2,0.7-2,0.9
		c-0.7,0.2-1.5,0.4-2.2,0.4c-0.9,0-1.6-0.1-2.4-0.4c-0.7-0.3-1.4-0.7-1.9-1.3c-0.6-0.6-1-1.2-1.3-2
		C379.8,134.4,379.6,133.5,379.6,132.5z M387.9,131.4c0-1-0.2-1.8-0.6-2.3c-0.4-0.6-1-0.8-1.9-0.8c-0.7,0-1.4,0.3-1.9,0.8
		s-0.9,1.3-1,2.3H387.9z"/>
	<path class="st2" d="M400.2,130.5c0-1.3,0.2-2.5,0.6-3.6c0.4-1.1,0.9-2,1.6-2.7s1.5-1.3,2.4-1.7c0.9-0.4,1.9-0.6,3-0.6
		c1,0,1.9,0.2,2.7,0.6c0.8,0.4,1.4,0.9,2,1.4l-1.6,1.8c-0.4-0.4-0.9-0.7-1.3-1c-0.5-0.2-1-0.4-1.7-0.4c-0.7,0-1.3,0.1-1.9,0.4
		s-1,0.7-1.5,1.2c-0.4,0.5-0.7,1.1-1,1.9c-0.2,0.7-0.3,1.6-0.3,2.5c0,1.9,0.4,3.3,1.2,4.4c0.8,1.1,1.9,1.6,3.3,1.6
		c0.7,0,1.4-0.1,1.9-0.4c0.5-0.3,1-0.7,1.5-1.2l1.6,1.8c-0.7,0.8-1.4,1.4-2.3,1.8c-0.8,0.4-1.8,0.6-2.8,0.6c-1.1,0-2-0.2-2.9-0.5
		c-0.9-0.4-1.7-0.9-2.3-1.6c-0.7-0.7-1.2-1.6-1.6-2.6C400.4,133.1,400.2,131.9,400.2,130.5z"/>
	<path class="st2" d="M415.2,121h2.9v14.6c0,0.4,0.1,0.6,0.2,0.7c0.1,0.1,0.3,0.2,0.4,0.2c0.1,0,0.1,0,0.2,0c0.1,0,0.1,0,0.3-0.1
		l0.4,2.1c-0.4,0.2-0.9,0.2-1.5,0.2c-1,0-1.8-0.3-2.2-0.9c-0.4-0.6-0.6-1.5-0.6-2.5V121z"/>
	<path class="st2" d="M421.4,135.4c0-1.3,0.6-2.3,1.7-3.1c1.1-0.7,3-1.2,5.5-1.5c0-0.3,0-0.6-0.1-0.9c-0.1-0.3-0.2-0.5-0.4-0.8
		s-0.4-0.4-0.7-0.5c-0.3-0.1-0.6-0.2-1-0.2c-0.6,0-1.2,0.1-1.8,0.4s-1.1,0.5-1.7,0.9l-1-1.9c0.7-0.4,1.4-0.8,2.3-1.1
		c0.8-0.3,1.8-0.5,2.7-0.5c1.5,0,2.7,0.5,3.5,1.4c0.8,0.9,1.1,2.2,1.1,3.9v7.3h-2.4l-0.2-1.4h-0.1c-0.5,0.5-1.1,0.9-1.8,1.2
		s-1.3,0.5-2,0.5c-1.1,0-2-0.3-2.6-1C421.8,137.3,421.4,136.4,421.4,135.4z M424.2,135.1c0,0.5,0.2,0.9,0.5,1.2
		c0.3,0.2,0.7,0.4,1.3,0.4c0.5,0,1-0.1,1.4-0.3c0.4-0.2,0.9-0.6,1.3-1v-2.8c-0.8,0.1-1.5,0.2-2.1,0.4s-1,0.4-1.4,0.6
		s-0.6,0.4-0.7,0.7C424.3,134.5,424.2,134.8,424.2,135.1z"/>
	<path class="st2" d="M435.2,135.4c0.5,0.4,1.1,0.8,1.6,1c0.5,0.2,1.1,0.4,1.8,0.4c0.7,0,1.2-0.1,1.5-0.4c0.3-0.3,0.5-0.6,0.5-1.1
		c0-0.2-0.1-0.5-0.2-0.7c-0.2-0.2-0.4-0.4-0.6-0.5s-0.5-0.3-0.8-0.4s-0.6-0.3-1-0.4c-0.4-0.1-0.8-0.3-1.2-0.5
		c-0.4-0.2-0.8-0.4-1.1-0.7c-0.3-0.3-0.6-0.6-0.8-1c-0.2-0.4-0.3-0.8-0.3-1.3c0-1.1,0.4-2,1.2-2.6s1.9-1,3.3-1
		c0.8,0,1.6,0.2,2.3,0.5s1.3,0.6,1.8,1l-1.3,1.8c-0.4-0.3-0.9-0.6-1.3-0.8c-0.4-0.2-0.9-0.3-1.4-0.3c-0.6,0-1.1,0.1-1.4,0.4
		c-0.3,0.3-0.4,0.6-0.4,1c0,0.2,0.1,0.5,0.2,0.6c0.1,0.2,0.3,0.3,0.6,0.5c0.2,0.1,0.5,0.3,0.8,0.4c0.3,0.1,0.6,0.2,1,0.4
		c0.4,0.1,0.8,0.3,1.2,0.5c0.4,0.2,0.8,0.4,1.1,0.7c0.3,0.3,0.6,0.6,0.8,1c0.2,0.4,0.3,0.9,0.3,1.5c0,0.5-0.1,1-0.3,1.5
		c-0.2,0.5-0.5,0.9-0.9,1.2c-0.4,0.3-0.9,0.6-1.5,0.8c-0.6,0.2-1.3,0.3-2,0.3c-0.8,0-1.7-0.2-2.5-0.5s-1.5-0.7-2.1-1.2L435.2,135.4z
		"/>
	<path class="st2" d="M445.9,135.4c0.5,0.4,1.1,0.8,1.6,1c0.5,0.2,1.1,0.4,1.8,0.4c0.7,0,1.2-0.1,1.5-0.4c0.3-0.3,0.5-0.6,0.5-1.1
		c0-0.2-0.1-0.5-0.2-0.7c-0.2-0.2-0.4-0.4-0.6-0.5s-0.5-0.3-0.8-0.4s-0.6-0.3-1-0.4c-0.4-0.1-0.8-0.3-1.2-0.5
		c-0.4-0.2-0.8-0.4-1.1-0.7c-0.3-0.3-0.6-0.6-0.8-1c-0.2-0.4-0.3-0.8-0.3-1.3c0-1.1,0.4-2,1.2-2.6s1.9-1,3.3-1
		c0.8,0,1.6,0.2,2.3,0.5s1.3,0.6,1.8,1l-1.3,1.8c-0.4-0.3-0.9-0.6-1.3-0.8c-0.4-0.2-0.9-0.3-1.4-0.3c-0.6,0-1.1,0.1-1.4,0.4
		c-0.3,0.3-0.4,0.6-0.4,1c0,0.2,0.1,0.5,0.2,0.6c0.1,0.2,0.3,0.3,0.6,0.5c0.2,0.1,0.5,0.3,0.8,0.4c0.3,0.1,0.6,0.2,1,0.4
		c0.4,0.1,0.8,0.3,1.2,0.5c0.4,0.2,0.8,0.4,1.1,0.7c0.3,0.3,0.6,0.6,0.8,1c0.2,0.4,0.3,0.9,0.3,1.5c0,0.5-0.1,1-0.3,1.5
		c-0.2,0.5-0.5,0.9-0.9,1.2c-0.4,0.3-0.9,0.6-1.5,0.8c-0.6,0.2-1.3,0.3-2,0.3c-0.8,0-1.7-0.2-2.5-0.5s-1.5-0.7-2.1-1.2L445.9,135.4z
		"/>
	<path class="st2" d="M458,124.2c-0.5,0-0.9-0.2-1.3-0.5c-0.3-0.3-0.5-0.7-0.5-1.2s0.2-0.9,0.5-1.2c0.3-0.3,0.8-0.5,1.3-0.5
		c0.5,0,0.9,0.2,1.3,0.5s0.5,0.7,0.5,1.2s-0.2,0.9-0.5,1.2S458.6,124.2,458,124.2z M456.6,126.4h2.9v12.3h-2.9V126.4z"/>
	<path class="st2" d="M462.3,132.5c0-1,0.2-1.9,0.5-2.7c0.3-0.8,0.8-1.5,1.3-2s1.2-1,2-1.3c0.7-0.3,1.5-0.4,2.3-0.4
		c0.8,0,1.5,0.1,2.1,0.4c0.6,0.3,1.1,0.6,1.5,1l-1.4,1.8c-0.3-0.3-0.7-0.5-1-0.7c-0.3-0.2-0.7-0.2-1.1-0.2c-1,0-1.8,0.4-2.4,1.1
		c-0.6,0.7-0.9,1.7-0.9,3c0,1.2,0.3,2.2,0.9,3c0.6,0.7,1.4,1.1,2.4,1.1c0.5,0,1-0.1,1.4-0.3s0.8-0.5,1.1-0.7l1.2,1.8
		c-0.6,0.5-1.2,0.9-1.9,1.2c-0.7,0.3-1.4,0.4-2.1,0.4c-0.8,0-1.6-0.1-2.3-0.4c-0.7-0.3-1.4-0.7-1.9-1.2s-0.9-1.2-1.2-2
		C462.5,134.4,462.3,133.5,462.3,132.5z"/>
	<path class="st2" d="M474.9,122.3h5.5c0.9,0,1.7,0.1,2.5,0.2c0.8,0.2,1.4,0.5,2,0.9c0.5,0.4,1,0.9,1.3,1.6c0.3,0.6,0.5,1.4,0.5,2.4
		c0,0.9-0.2,1.7-0.5,2.3c-0.3,0.7-0.8,1.2-1.3,1.7c-0.6,0.4-1.2,0.8-2,1c-0.8,0.2-1.6,0.3-2.5,0.3h-2.6v6h-2.9V122.3z M480.2,130.3
		c2.4,0,3.6-1,3.6-3c0-1-0.3-1.7-0.9-2.1c-0.6-0.4-1.5-0.6-2.7-0.6h-2.4v5.7H480.2z"/>
	<path class="st2" d="M489.5,126.4h2.4l0.2,2.2h0.1c0.4-0.8,1-1.4,1.6-1.8c0.6-0.4,1.2-0.6,1.9-0.6c0.6,0,1.1,0.1,1.4,0.2l-0.5,2.5
		c-0.2-0.1-0.4-0.1-0.6-0.1c-0.2,0-0.4,0-0.7,0c-0.5,0-1,0.2-1.5,0.6c-0.5,0.4-1,1-1.4,2v7.5h-2.9V126.4z"/>
	<path class="st2" d="M497.8,132.5c0-1,0.2-1.9,0.5-2.7c0.3-0.8,0.7-1.5,1.3-2c0.5-0.5,1.1-1,1.8-1.3c0.7-0.3,1.4-0.5,2.1-0.5
		c0.8,0,1.6,0.1,2.2,0.4c0.6,0.3,1.2,0.7,1.6,1.2c0.4,0.5,0.7,1.1,1,1.9c0.2,0.7,0.3,1.5,0.3,2.4c0,0.6,0,1-0.1,1.4h-7.8
		c0.1,1.1,0.5,2,1.2,2.6c0.6,0.6,1.5,0.9,2.5,0.9c0.5,0,1-0.1,1.5-0.2c0.5-0.2,0.9-0.4,1.4-0.7l1,1.8c-0.6,0.4-1.2,0.7-2,0.9
		c-0.7,0.2-1.5,0.4-2.2,0.4c-0.9,0-1.6-0.1-2.4-0.4c-0.7-0.3-1.4-0.7-1.9-1.3c-0.6-0.6-1-1.2-1.3-2
		C497.9,134.4,497.8,133.5,497.8,132.5z M506,131.4c0-1-0.2-1.8-0.6-2.3c-0.4-0.6-1-0.8-1.9-0.8c-0.7,0-1.4,0.3-1.9,0.8
		s-0.9,1.3-1,2.3H506z"/>
	<path class="st2" d="M511.4,135.4c0.5,0.4,1.1,0.8,1.6,1c0.5,0.2,1.1,0.4,1.8,0.4c0.7,0,1.2-0.1,1.5-0.4c0.3-0.3,0.5-0.6,0.5-1.1
		c0-0.2-0.1-0.5-0.2-0.7c-0.2-0.2-0.4-0.4-0.6-0.5s-0.5-0.3-0.8-0.4s-0.6-0.3-1-0.4c-0.4-0.1-0.8-0.3-1.2-0.5
		c-0.4-0.2-0.8-0.4-1.1-0.7c-0.3-0.3-0.6-0.6-0.8-1c-0.2-0.4-0.3-0.8-0.3-1.3c0-1.1,0.4-2,1.2-2.6s1.9-1,3.3-1
		c0.8,0,1.6,0.2,2.3,0.5s1.3,0.6,1.8,1l-1.3,1.8c-0.4-0.3-0.9-0.6-1.3-0.8c-0.4-0.2-0.9-0.3-1.4-0.3c-0.6,0-1.1,0.1-1.4,0.4
		c-0.3,0.3-0.4,0.6-0.4,1c0,0.2,0.1,0.5,0.2,0.6c0.1,0.2,0.3,0.3,0.6,0.5c0.2,0.1,0.5,0.3,0.8,0.4c0.3,0.1,0.6,0.2,1,0.4
		c0.4,0.1,0.8,0.3,1.2,0.5c0.4,0.2,0.8,0.4,1.1,0.7c0.3,0.3,0.6,0.6,0.8,1c0.2,0.4,0.3,0.9,0.3,1.5c0,0.5-0.1,1-0.3,1.5
		c-0.2,0.5-0.5,0.9-0.9,1.2c-0.4,0.3-0.9,0.6-1.5,0.8c-0.6,0.2-1.3,0.3-2,0.3c-0.8,0-1.7-0.2-2.5-0.5s-1.5-0.7-2.1-1.2L511.4,135.4z
		"/>
	<path class="st2" d="M522.1,135.4c0.5,0.4,1.1,0.8,1.6,1c0.5,0.2,1.1,0.4,1.8,0.4c0.7,0,1.2-0.1,1.5-0.4c0.3-0.3,0.5-0.6,0.5-1.1
		c0-0.2-0.1-0.5-0.2-0.7c-0.2-0.2-0.4-0.4-0.6-0.5s-0.5-0.3-0.8-0.4s-0.6-0.3-1-0.4c-0.4-0.1-0.8-0.3-1.2-0.5
		c-0.4-0.2-0.8-0.4-1.1-0.7c-0.3-0.3-0.6-0.6-0.8-1c-0.2-0.4-0.3-0.8-0.3-1.3c0-1.1,0.4-2,1.2-2.6s1.9-1,3.3-1
		c0.8,0,1.6,0.2,2.3,0.5s1.3,0.6,1.8,1l-1.3,1.8c-0.4-0.3-0.9-0.6-1.3-0.8c-0.4-0.2-0.9-0.3-1.4-0.3c-0.6,0-1.1,0.1-1.4,0.4
		c-0.3,0.3-0.4,0.6-0.4,1c0,0.2,0.1,0.5,0.2,0.6c0.1,0.2,0.3,0.3,0.6,0.5c0.2,0.1,0.5,0.3,0.8,0.4c0.3,0.1,0.6,0.2,1,0.4
		c0.4,0.1,0.8,0.3,1.2,0.5c0.4,0.2,0.8,0.4,1.1,0.7c0.3,0.3,0.6,0.6,0.8,1c0.2,0.4,0.3,0.9,0.3,1.5c0,0.5-0.1,1-0.3,1.5
		c-0.2,0.5-0.5,0.9-0.9,1.2c-0.4,0.3-0.9,0.6-1.5,0.8c-0.6,0.2-1.3,0.3-2,0.3c-0.8,0-1.7-0.2-2.5-0.5s-1.5-0.7-2.1-1.2L522.1,135.4z
		"/>
	<path class="st2" d="M540.5,121h2.9v4.5l-0.1,2.4c0.5-0.5,1.1-0.9,1.7-1.3s1.4-0.6,2.2-0.6c1.3,0,2.3,0.4,2.9,1.3
		c0.6,0.8,0.9,2,0.9,3.6v7.7h-2.9v-7.3c0-1-0.1-1.7-0.5-2.1c-0.3-0.4-0.8-0.6-1.5-0.6c-0.5,0-1,0.1-1.4,0.4
		c-0.4,0.3-0.9,0.6-1.4,1.1v8.6h-2.9V121z"/>
	<path class="st2" d="M553.6,132.5c0-1,0.2-1.9,0.5-2.7c0.3-0.8,0.7-1.5,1.3-2c0.5-0.5,1.1-1,1.8-1.3c0.7-0.3,1.4-0.5,2.1-0.5
		c0.8,0,1.6,0.1,2.2,0.4c0.6,0.3,1.2,0.7,1.6,1.2c0.4,0.5,0.7,1.1,1,1.9c0.2,0.7,0.3,1.5,0.3,2.4c0,0.6,0,1-0.1,1.4h-7.8
		c0.1,1.1,0.5,2,1.2,2.6c0.6,0.6,1.5,0.9,2.5,0.9c0.5,0,1-0.1,1.5-0.2c0.5-0.2,0.9-0.4,1.4-0.7l1,1.8c-0.6,0.4-1.2,0.7-2,0.9
		c-0.7,0.2-1.5,0.4-2.2,0.4c-0.9,0-1.6-0.1-2.4-0.4c-0.7-0.3-1.4-0.7-1.9-1.3c-0.6-0.6-1-1.2-1.3-2
		C553.8,134.4,553.6,133.5,553.6,132.5z M561.8,131.4c0-1-0.2-1.8-0.6-2.3c-0.4-0.6-1-0.8-1.9-0.8c-0.7,0-1.4,0.3-1.9,0.8
		s-0.9,1.3-1,2.3H561.8z"/>
	<path class="st2" d="M566.3,135.4c0-1.3,0.6-2.3,1.7-3.1c1.1-0.7,3-1.2,5.5-1.5c0-0.3,0-0.6-0.1-0.9c-0.1-0.3-0.2-0.5-0.4-0.8
		s-0.4-0.4-0.7-0.5c-0.3-0.1-0.6-0.2-1-0.2c-0.6,0-1.2,0.1-1.8,0.4s-1.1,0.5-1.7,0.9l-1-1.9c0.7-0.4,1.4-0.8,2.3-1.1
		c0.8-0.3,1.8-0.5,2.7-0.5c1.5,0,2.7,0.5,3.5,1.4c0.8,0.9,1.1,2.2,1.1,3.9v7.3H574l-0.2-1.4h-0.1c-0.5,0.5-1.1,0.9-1.8,1.2
		s-1.3,0.5-2,0.5c-1.1,0-2-0.3-2.6-1C566.6,137.3,566.3,136.4,566.3,135.4z M569.1,135.1c0,0.5,0.2,0.9,0.5,1.2
		c0.3,0.2,0.7,0.4,1.3,0.4c0.5,0,1-0.1,1.4-0.3c0.4-0.2,0.9-0.6,1.3-1v-2.8c-0.8,0.1-1.5,0.2-2.1,0.4s-1,0.4-1.4,0.6
		s-0.6,0.4-0.7,0.7C569.1,134.5,569.1,134.8,569.1,135.1z"/>
	<path class="st2" d="M579.1,132.5c0-1,0.1-1.9,0.4-2.7c0.3-0.8,0.7-1.5,1.2-2c0.5-0.5,1-1,1.7-1.3s1.3-0.5,1.9-0.5
		c0.7,0,1.3,0.1,1.8,0.4s1,0.6,1.5,1l-0.1-2V121h2.9v17.6h-2.4l-0.2-1.3h-0.1c-0.4,0.5-1,0.8-1.6,1.2c-0.6,0.3-1.2,0.5-1.9,0.5
		c-1.5,0-2.8-0.6-3.7-1.7S579.1,134.6,579.1,132.5z M582.1,132.5c0,1.3,0.2,2.3,0.7,3c0.5,0.7,1.2,1,2.1,1c0.9,0,1.8-0.5,2.6-1.4
		v-5.7c-0.4-0.4-0.9-0.7-1.3-0.8c-0.4-0.1-0.8-0.2-1.2-0.2c-0.8,0-1.5,0.4-2,1.1C582.4,130.2,582.1,131.2,582.1,132.5z"/>
	<path class="st2" d="M601.8,135.4c0.5,0.4,1.1,0.8,1.6,1c0.5,0.2,1.1,0.4,1.8,0.4c0.7,0,1.2-0.1,1.5-0.4c0.3-0.3,0.5-0.6,0.5-1.1
		c0-0.2-0.1-0.5-0.2-0.7c-0.2-0.2-0.4-0.4-0.6-0.5s-0.5-0.3-0.8-0.4s-0.6-0.3-1-0.4c-0.4-0.1-0.8-0.3-1.2-0.5
		c-0.4-0.2-0.8-0.4-1.1-0.7c-0.3-0.3-0.6-0.6-0.8-1c-0.2-0.4-0.3-0.8-0.3-1.3c0-1.1,0.4-2,1.2-2.6s1.9-1,3.3-1
		c0.8,0,1.6,0.2,2.3,0.5s1.3,0.6,1.8,1l-1.3,1.8c-0.4-0.3-0.9-0.6-1.3-0.8c-0.4-0.2-0.9-0.3-1.4-0.3c-0.6,0-1.1,0.1-1.4,0.4
		c-0.3,0.3-0.4,0.6-0.4,1c0,0.2,0.1,0.5,0.2,0.6c0.1,0.2,0.3,0.3,0.6,0.5c0.2,0.1,0.5,0.3,0.8,0.4c0.3,0.1,0.6,0.2,1,0.4
		c0.4,0.1,0.8,0.3,1.2,0.5c0.4,0.2,0.8,0.4,1.1,0.7c0.3,0.3,0.6,0.6,0.8,1c0.2,0.4,0.3,0.9,0.3,1.5c0,0.5-0.1,1-0.3,1.5
		c-0.2,0.5-0.5,0.9-0.9,1.2c-0.4,0.3-0.9,0.6-1.5,0.8c-0.6,0.2-1.3,0.3-2,0.3c-0.8,0-1.7-0.2-2.5-0.5s-1.5-0.7-2.1-1.2L601.8,135.4z
		"/>
	<path class="st2" d="M611.6,132.5c0-1,0.2-1.9,0.5-2.7c0.3-0.8,0.7-1.5,1.3-2c0.5-0.5,1.1-1,1.8-1.3c0.7-0.3,1.4-0.5,2.1-0.5
		c0.8,0,1.6,0.1,2.2,0.4c0.6,0.3,1.2,0.7,1.6,1.2c0.4,0.5,0.7,1.1,1,1.9c0.2,0.7,0.3,1.5,0.3,2.4c0,0.6,0,1-0.1,1.4h-7.8
		c0.1,1.1,0.5,2,1.2,2.6c0.6,0.6,1.5,0.9,2.5,0.9c0.5,0,1-0.1,1.5-0.2c0.5-0.2,0.9-0.4,1.4-0.7l1,1.8c-0.6,0.4-1.2,0.7-2,0.9
		c-0.7,0.2-1.5,0.4-2.2,0.4c-0.9,0-1.6-0.1-2.4-0.4c-0.7-0.3-1.4-0.7-1.9-1.3c-0.6-0.6-1-1.2-1.3-2
		C611.8,134.4,611.6,133.5,611.6,132.5z M619.9,131.4c0-1-0.2-1.8-0.6-2.3c-0.4-0.6-1-0.8-1.9-0.8c-0.7,0-1.4,0.3-1.9,0.8
		s-0.9,1.3-1,2.3H619.9z"/>
	<path class="st2" d="M624.3,132.5c0-1,0.2-1.9,0.5-2.7c0.3-0.8,0.8-1.5,1.3-2s1.2-1,2-1.3c0.7-0.3,1.5-0.4,2.3-0.4
		c0.8,0,1.5,0.1,2.1,0.4c0.6,0.3,1.1,0.6,1.5,1l-1.4,1.8c-0.3-0.3-0.7-0.5-1-0.7c-0.3-0.2-0.7-0.2-1.1-0.2c-1,0-1.8,0.4-2.4,1.1
		c-0.6,0.7-0.9,1.7-0.9,3c0,1.2,0.3,2.2,0.9,3c0.6,0.7,1.4,1.1,2.4,1.1c0.5,0,1-0.1,1.4-0.3s0.8-0.5,1.1-0.7l1.2,1.8
		c-0.6,0.5-1.2,0.9-1.9,1.2c-0.7,0.3-1.4,0.4-2.1,0.4c-0.8,0-1.6-0.1-2.3-0.4c-0.7-0.3-1.4-0.7-1.9-1.2s-0.9-1.2-1.2-2
		C624.5,134.4,624.3,133.5,624.3,132.5z"/>
	<path class="st2" d="M637.1,128.6h-1.8v-2.1l1.9-0.1l0.3-3.4h2.4v3.4h3.1v2.3H640v5.9c0,1.4,0.6,2.1,1.7,2.1c0.2,0,0.4,0,0.7-0.1
		c0.2,0,0.4-0.1,0.6-0.2l0.5,2.1c-0.3,0.1-0.7,0.2-1.1,0.3c-0.4,0.1-0.9,0.1-1.4,0.1c-0.7,0-1.3-0.1-1.8-0.3
		c-0.5-0.2-0.9-0.5-1.2-0.9c-0.3-0.4-0.5-0.9-0.7-1.4c-0.1-0.5-0.2-1.1-0.2-1.8V128.6z"/>
	<path class="st2" d="M647.1,124.2c-0.5,0-0.9-0.2-1.3-0.5c-0.3-0.3-0.5-0.7-0.5-1.2s0.2-0.9,0.5-1.2c0.3-0.3,0.8-0.5,1.3-0.5
		c0.5,0,0.9,0.2,1.3,0.5s0.5,0.7,0.5,1.2s-0.2,0.9-0.5,1.2S647.6,124.2,647.1,124.2z M645.7,126.4h2.9v12.3h-2.9V126.4z"/>
	<path class="st2" d="M651.4,132.5c0-1,0.2-1.9,0.5-2.7c0.3-0.8,0.7-1.5,1.3-2c0.5-0.5,1.2-1,1.9-1.3c0.7-0.3,1.4-0.4,2.2-0.4
		s1.5,0.1,2.2,0.4c0.7,0.3,1.3,0.7,1.9,1.3s1,1.2,1.3,2c0.3,0.8,0.5,1.7,0.5,2.7s-0.2,1.9-0.5,2.7c-0.3,0.8-0.8,1.5-1.3,2
		s-1.2,1-1.9,1.2c-0.7,0.3-1.4,0.4-2.2,0.4s-1.5-0.1-2.2-0.4c-0.7-0.3-1.3-0.7-1.9-1.2c-0.5-0.5-1-1.2-1.3-2
		C651.6,134.4,651.4,133.5,651.4,132.5z M654.4,132.5c0,1.2,0.3,2.2,0.8,3c0.5,0.7,1.2,1.1,2.1,1.1c0.9,0,1.6-0.4,2.1-1.1
		c0.5-0.7,0.8-1.7,0.8-3c0-1.2-0.3-2.2-0.8-3s-1.2-1.1-2.1-1.1c-0.9,0-1.6,0.4-2.1,1.1S654.4,131.3,654.4,132.5z"/>
	<path class="st2" d="M666,126.4h2.4l0.2,1.6h0.1c0.5-0.5,1.1-1,1.8-1.4c0.6-0.4,1.4-0.6,2.2-0.6c1.3,0,2.3,0.4,2.9,1.3
		c0.6,0.8,0.9,2,0.9,3.6v7.7h-2.9v-7.3c0-1-0.1-1.7-0.5-2.1c-0.3-0.4-0.8-0.6-1.5-0.6c-0.5,0-1,0.1-1.4,0.4
		c-0.4,0.3-0.9,0.6-1.4,1.1v8.6H666V126.4z"/>
	<path class="st2" d="M679.7,137c0-0.6,0.2-1,0.5-1.4s0.8-0.6,1.3-0.6c0.5,0,1,0.2,1.3,0.6c0.3,0.4,0.5,0.8,0.5,1.4
		c0,0.6-0.2,1-0.5,1.4c-0.4,0.4-0.8,0.5-1.3,0.5c-0.5,0-1-0.2-1.3-0.5S679.7,137.6,679.7,137z"/>
</g>
</svg>
